<?xml version="1.0" encoding="UTF-8" standalone="no"?>
<!-- Created with Inkscape (http://www.inkscape.org/) -->

<svg
   xmlns:dc="http://purl.org/dc/elements/1.1/"
   xmlns:cc="http://creativecommons.org/ns#"
   xmlns:rdf="http://www.w3.org/1999/02/22-rdf-syntax-ns#"
   xmlns:svg="http://www.w3.org/2000/svg"
   xmlns="http://www.w3.org/2000/svg"
   xmlns:sodipodi="http://sodipodi.sourceforge.net/DTD/sodipodi-0.dtd"
   xmlns:inkscape="http://www.inkscape.org/namespaces/inkscape"
   width="59mm"
   height="104mm"
   id="svg2830"
   version="1.1"
   inkscape:version="0.47 r22583"
   sodipodi:docname="Nuevo documento 2">
  <defs
     id="defs2832">
    <inkscape:perspective
       sodipodi:type="inkscape:persp3d"
       inkscape:vp_x="0 : 526.18109 : 1"
       inkscape:vp_y="0 : 1000 : 0"
       inkscape:vp_z="744.09448 : 526.18109 : 1"
       inkscape:persp3d-origin="372.04724 : 350.78739 : 1"
       id="perspective2838" />
    <inkscape:perspective
       id="perspective2825"
       inkscape:persp3d-origin="0.5 : 0.33333333 : 1"
       inkscape:vp_z="1 : 0.5 : 1"
       inkscape:vp_y="0 : 1000 : 0"
       inkscape:vp_x="0 : 0.5 : 1"
       sodipodi:type="inkscape:persp3d" />
  </defs>
  <sodipodi:namedview
     id="base"
     pagecolor="#ffffff"
     bordercolor="#666666"
     borderopacity="1.0"
     inkscape:pageopacity="0.0"
     inkscape:pageshadow="2"
     inkscape:zoom="0.35"
     inkscape:cx="-54.285714"
     inkscape:cy="177.14286"
     inkscape:document-units="px"
     inkscape:current-layer="layer1"
     showgrid="false"
     inkscape:window-width="1126"
     inkscape:window-height="691"
     inkscape:window-x="0"
     inkscape:window-y="52"
     inkscape:window-maximized="0" />
  <metadata
     id="metadata2835">
    <rdf:RDF>
      <cc:Work
         rdf:about="">
        <dc:format>image/svg+xml</dc:format>
        <dc:type
           rdf:resource="http://purl.org/dc/dcmitype/StillImage" />
        <dc:title></dc:title>
      </cc:Work>
    </rdf:RDF>
  </metadata>
  <g
     inkscape:label="Capa 1"
     inkscape:groupmode="layer"
     id="layer1">
    <path
       style="fill:none;stroke:#000000;stroke-width:1.24999964"
       id="africa"
       d="m 40.757797,10.376088 c 0,0 -5.3125,-5.4625004 -9.85,-3.2750004 -4.525,2.1875 -4.675,9.8500004 -7.65,11.1000004 -2.975,1.25 -3.9,10.77499 -2.975,14.67499 0.95,3.9125 -3.125,3.9125 -4.375,5.1625 -1.25,1.25 -16.39999015,22.03749 -15.62499015,37.33749 0.78750005,15.324989 -5.46249995,90.624972 26.87499015,90.324972 16.41249,-7.35 32.34999,-10.625 38.12499,0.775 5.7875,11.39999 3.2875,25.93749 7.5,35.62499 4.22499,9.68749 14.22499,45.77498 6.72499,63.59998 -7.49999,17.79999 8.125,44.83748 7.8125,62.79998 2.6625,10.16249 4.375,12.49999 5.9375,16.72499 1.5625,4.225 0.775,9.0625 2.1875,14.525 1.4125,5.47499 17.812503,19.84999 31.562493,-4.675 8.4375,-12.2 8.275,-27.66249 8.75,-29.84999 0.475,-2.1875 6.725,3.275 8.125,-10.3125 1.4,-13.5875 -4.225,-19.06249 2.1875,-22.96249 6.41249,-3.9125 12.49999,-22.6625 11.08749,-38.59999 -1.4,-15.9375 -5.15,-53.74998 17.0375,-78.89998 9.53749,-12.03749 14.83749,-44.69998 13.91249,-47.82498 0.625,-0.4625 -19.37499,13.9125 -22.66249,-1.0875 19.68749,-18.74999 44.83748,-37.499992 43.28749,-51.874982 -2.2,-12.1875 -6.4125,-11.7125 -6.4125,-11.7125 0,0 0,-10.78749 0,-10.78749 0,0 -9.2125,20.31249 -13.2875,12.66249 -4.05,-7.6625 -16.54999,-52.49998 -44.37498,-43.12498 -4.375,5.14999 -13.75,11.54999 -30.92499,4.21249 -3.6,-3.28749 -7.975,-8.74999 -11.725,-0.4625 1.1,2.65 0.625,12.3375 -8.275003,4.675 -8.9125,-7.64999 -20.1625,-7.96249 -19.075,-14.67499 1.1,-6.7250004 8.125,-18.6 -9.99999,-13.7500004 -5.925,1.4 -21.25,4.675 -23.89999,10.4625004" />
  </g>
</svg>
